<svg viewBox="0 0 500 500" xmlns="http://www.w3.org/2000/svg"><g fill="none" stroke-width="2"><path d="M460.78 122.74q9.62 18.72 12.97 26.76 30.11 72.17 13.51 149.02-.04.21-.35.24" stroke="#049481"/><path d="M486.91 298.76 278.3 90.18" stroke="#0e8272"/><path d="M278.3 90.18q-11.25-13.2-27.69-14.15c-4.23-.25-8.95.6-13.44.24q-.23-.02-.41.13-.38.33.09.53l.62.26q.97.41-.02.78-15.64 5.92-21.86 21.56" stroke="#035f53"/><path d="M215.59 99.53q-1.33-1-1.52-.03-.15.72.2 2.81" stroke="#0e8272"/><path d="M214.27 102.31c-.48 3.79-.97 7.56-.98 11.45q-.1 52.58-.97 105.15-.01.51-.51.54l-3.48.22" stroke="#035f53"/><path d="m208.33 219.67-5.05-.16q-.55-.01-.34.49l.34.81" stroke="#049481"/><path d="M203.28 220.81q-3.56 1.27-6.98 2.76c-10.63 4.66-18.26 11.96-23.63 22.14q-2.43 4.6-3.02 6.85-1.64 6.28-2.68 15.95c-.15 1.39-.64 2.61-.76 3.99q-.56 6.74-1.61 14.52-6.25 46.39-12.32 92.24-1.43 10.79-1.96 14.01-1.73 10.53 6.65 17.23" stroke="#035f53"/><path d="m156.97 410.5 78.88 78.94" stroke="#0e8272"/><path d="M235.85 489.44q-7.87-.14-16.11-1.06c-65.43-7.29-125.1-39.87-166.22-91.27q-.6-.75-.38.19l.17.74" stroke="#049481"/><path d="M278.3 90.18q.58 1.63 2.89 5.61 3.83 6.57 3.74 17.9-.46 53.06-1.03 106.34a.34.33-87.2 0 0 .3.34q21.23 2.21 34.08 18.74 6.5 8.36 8.62 19.41 1.18 6.17 2.1 14.62 6.59 60.43 13.88 123.52c1.08 9.33-5.42 16.97-14.88 16.89q-81.63-.69-163.25-1.51-1.75-.02-7.78-1.54" stroke="#0c231f"/><path d="m203.28 220.81 5.05-1.14" stroke="#02352e"/><path d="m214.27 102.31 1.32-2.78" stroke="#0c231f"/><path d="m224.25 219.69 47.9.5a.48.48 0 0 0 .48-.48l1.12-107.25a24.72 24.34-89.4 0 0-24.08-24.98h-.18a24.72 24.34-89.4 0 0-24.59 24.47l-1.13 107.25a.48.48 0 0 0 .48.49" stroke="#482b1e"/><path d="M315.67 259.47c-2.55-12.74-13.06-22.73-25.06-26.46q-5.12-1.58-17.93-1.64-31.64-.15-56.94-.45c-15.4-.18-29.13 9.36-34.47 23.8-2.04 5.5-2.47 11.71-3.24 17.49q-.59 4.4 3.85 4.44 66.5.63 132.48 1.29a3.23 3.23 0 0 0 3.26-3.47q-.62-8.36-1.95-15" stroke="#754500"/><path d="M211.49 401.26q.83.38 1.23 1.23c1.87 3.91 6.61 5.21 10.46 3.93q3.2-1.06 5.58-4.98" stroke="#000500"/><path d="m228.76 401.44 35.35.34q.62.01.43-.58l-.2-.62q-.17-.52-.19-1.06-1.08-27.08-2.11-55.46c-.13-3.49.46-6.24 3.19-8.46 4.22-3.44 10.25-2.42 13.16 2.08q1.42 2.2 1.54 5.78.93 28.15 1.99 52.99.11 2.53-.42 4.92-.12.55.44.55l46.55.42a3.23 3.22-3 0 0 3.24-3.58L319.3 288.8q-.05-.46-.49-.32-2.51.78-4.31.76l-133-1.36q-2.7-.03-5.19-.83a.23.23 0 0 0-.3.19q-7.23 54.62-14.5 109.16-.57 4.34 4.24 4.38 22.62.17 45.74.48" stroke="#7a5c22"/><path d="M228.76 401.44q1.86-28.53 3.37-57.31.16-3.17-.43-5.12c-1.6-5.31-8.36-7.46-12.79-4.69q-4.21 2.64-4.43 6.43-1.58 26.87-3.03 56.26-.11 2.24.04 4.25" stroke="#7a6122"/><path d="M486.91 298.76q-13.35 57.02-50.48 102.01c-1.76 2.14-3.7 4.02-5.42 6.17q-1.89 2.37-4.06 4.64-58.69 61.49-143.33 75.21c-1.88.3-3.69.22-5.56.72-3.1.82-6.28.5-9.43 1.02q-2.32.39-4.95.46-13.75.39-27.83.45" stroke="#0d574d"/></g><path d="M238.89 0h15.34q52.39 1.89 98.52 23.81 53.98 25.65 90.83 73.86 8.22 10.75 17.2 25.07 9.62 18.72 12.97 26.76 30.11 72.17 13.51 149.02-.04.21-.35.24L278.3 90.18q-11.25-13.2-27.69-14.15c-4.23-.25-8.95.6-13.44.24q-.23-.02-.41.13-.38.33.09.53l.62.26q.97.41-.02.78-15.64 5.92-21.86 21.56-1.33-1-1.52-.03-.15.72.2 2.81c-.48 3.79-.97 7.56-.98 11.45q-.1 52.58-.97 105.15-.01.51-.51.54l-3.48.22-5.05-.16q-.55-.01-.34.49l.34.81q-3.56 1.27-6.98 2.76c-10.63 4.66-18.26 11.96-23.63 22.14q-2.43 4.6-3.02 6.85-1.64 6.28-2.68 15.95c-.15 1.39-.64 2.61-.76 3.99q-.56 6.74-1.61 14.52-6.25 46.39-12.32 92.24-1.43 10.79-1.96 14.01-1.73 10.53 6.65 17.23l78.88 78.94q-7.87-.14-16.11-1.06c-65.43-7.29-125.1-39.87-166.22-91.27q-.6-.75-.38.19l.17.74q-10.67-14.79-17.72-26.37Q2.42 317.15 0 252.36v-15.12q3.58-84.73 56.92-148.81 30.01-36.05 72.62-59.09Q179.7 2.21 238.89 0" fill="#05bea6"/><path d="M278.3 90.18q.58 1.63 2.89 5.61 3.83 6.57 3.74 17.9-.46 53.06-1.03 106.34a.34.33-87.2 0 0 .3.34q21.23 2.21 34.08 18.74 6.5 8.36 8.62 19.41 1.18 6.17 2.1 14.62 6.59 60.43 13.88 123.52c1.08 9.33-5.42 16.97-14.88 16.89q-81.63-.69-163.25-1.51-1.75-.02-7.78-1.54-8.38-6.7-6.65-17.23.53-3.22 1.96-14.01 6.07-45.85 12.32-92.24 1.05-7.78 1.61-14.52c.12-1.38.61-2.6.76-3.99q1.04-9.67 2.68-15.95.59-2.25 3.02-6.85c5.37-10.18 13-17.48 23.63-22.14q3.42-1.49 6.98-2.76l5.05-1.14 3.48-.22q.5-.03.51-.54.87-52.57.97-105.15c.01-3.89.5-7.66.98-11.45l1.32-2.78q6.22-15.64 21.86-21.56.99-.37.02-.78l-.62-.26q-.47-.2-.09-.53.18-.15.41-.13c4.49.36 9.21-.49 13.44-.24q16.44.95 27.69 14.15m-54.05 129.51 47.9.5a.48.48 0 0 0 .48-.48l1.12-107.25a24.72 24.34-89.4 0 0-24.08-24.98h-.18a24.72 24.34-89.4 0 0-24.59 24.47l-1.13 107.25a.48.48 0 0 0 .48.49m91.42 39.78c-2.55-12.74-13.06-22.73-25.06-26.46q-5.12-1.58-17.93-1.64-31.64-.15-56.94-.45c-15.4-.18-29.13 9.36-34.47 23.8-2.04 5.5-2.47 11.71-3.24 17.49q-.59 4.4 3.85 4.44 66.5.63 132.48 1.29a3.23 3.23 0 0 0 3.26-3.47q-.62-8.36-1.95-15M211.49 401.26q.83.38 1.23 1.23c1.87 3.91 6.61 5.21 10.46 3.93q3.2-1.06 5.58-4.98l35.35.34q.62.01.43-.58l-.2-.62q-.17-.52-.19-1.06-1.08-27.08-2.11-55.46c-.13-3.49.46-6.24 3.19-8.46 4.22-3.44 10.25-2.42 13.16 2.08q1.42 2.2 1.54 5.78.93 28.15 1.99 52.99.11 2.53-.42 4.92-.12.55.44.55l46.55.42a3.23 3.22-3 0 0 3.24-3.58L319.3 288.8q-.05-.46-.49-.32-2.51.78-4.31.76l-133-1.36q-2.7-.03-5.19-.83a.23.23 0 0 0-.3.19q-7.23 54.62-14.5 109.16-.57 4.34 4.24 4.38 22.62.17 45.74.48"/><path d="M224.25 219.69a.48.48 0 0 1-.48-.49l1.13-107.25a24.72 24.34-89.4 0 1 24.59-24.47h.18a24.72 24.34-89.4 0 1 24.08 24.98l-1.12 107.25a.48.48 0 0 1-.48.48z" fill="#8f563b"/><path d="m278.3 90.18 208.61 208.58q-13.35 57.02-50.48 102.01c-1.76 2.14-3.7 4.02-5.42 6.17q-1.89 2.37-4.06 4.64-58.69 61.49-143.33 75.21c-1.88.3-3.69.22-5.56.72-3.1.82-6.28.5-9.43 1.02q-2.32.39-4.95.46-13.75.39-27.83.45l-78.88-78.94q6.03 1.52 7.78 1.54 81.62.82 163.25 1.51c9.46.08 15.96-7.56 14.88-16.89q-7.29-63.09-13.88-123.52-.92-8.45-2.1-14.62-2.12-11.05-8.62-19.41-12.85-16.53-34.08-18.74a.34.33-87.2 0 1-.3-.34q.57-53.28 1.03-106.34.09-11.33-3.74-17.9-2.31-3.98-2.89-5.61m-62.71 9.35-1.32 2.78q-.35-2.09-.2-2.81.19-.97 1.52.03" fill="#17453e"/><path d="M460.78 122.74q36.7 56.84 39.22 125.17v14.58q-1.93 53.32-24.57 99.23-21.52 43.64-56.26 74.69Q352.3 496.19 260.88 500h-15.11q-59.24-2.2-109.42-29.37-47.29-25.59-79.95-68.3-1.63-2.13-3.09-4.29l-.17-.74q-.22-.94.38-.19c41.12 51.4 100.79 83.98 166.22 91.27q8.24.92 16.11 1.06 14.08-.06 27.83-.45 2.63-.07 4.95-.46c3.15-.52 6.33-.2 9.43-1.02 1.87-.5 3.68-.42 5.56-.72q84.64-13.72 143.33-75.21 2.17-2.27 4.06-4.64c1.72-2.15 3.66-4.03 5.42-6.17q37.13-44.99 50.48-102.01.31-.03.35-.24 16.6-76.85-13.51-149.02-3.35-8.04-12.97-26.76m-252.45 96.93-5.05 1.14-.34-.81q-.21-.5.34-.49z" fill="#03695c"/><path d="M290.61 233.01c12 3.73 22.51 13.72 25.06 26.46q1.33 6.64 1.95 15a3.23 3.23 0 0 1-3.26 3.47q-65.98-.66-132.48-1.29-4.44-.04-3.85-4.44c.77-5.78 1.2-11.99 3.24-17.49 5.34-14.44 19.07-23.98 34.47-23.8q25.3.3 56.94.45 12.81.06 17.93 1.64" fill="#ea8a00"/><path d="M228.76 401.44q1.86-28.53 3.37-57.31.16-3.17-.43-5.12c-1.6-5.31-8.36-7.46-12.79-4.69q-4.21 2.64-4.43 6.43-1.58 26.87-3.03 56.26-.11 2.24.04 4.25-23.12-.31-45.74-.48-4.81-.04-4.24-4.38 7.27-54.54 14.5-109.16a.23.23 0 0 1 .3-.19q2.49.8 5.19.83l133 1.36q1.8.02 4.31-.76.44-.14.49.32l12.43 109.96a3.23 3.22-3 0 1-3.24 3.58l-46.55-.42q-.56 0-.44-.55.53-2.39.42-4.92-1.06-24.84-1.99-52.99-.12-3.58-1.54-5.78c-2.91-4.5-8.94-5.52-13.16-2.08-2.73 2.22-3.32 4.97-3.19 8.46q1.03 28.38 2.11 55.46.02.54.19 1.06l.2.62q.19.59-.43.58z" fill="#f4b844"/><path d="M228.76 401.44q-2.38 3.92-5.58 4.98c-3.85 1.28-8.59-.02-10.46-3.93q-.4-.85-1.23-1.23-.15-2.01-.04-4.25 1.45-29.39 3.03-56.26.22-3.79 4.43-6.43c4.43-2.77 11.19-.62 12.79 4.69q.59 1.95.43 5.12-1.51 28.78-3.37 57.31" fill="#000a00"/></svg>